<svg version="1.1" id="Layer_1" xmlns="http://www.w3.org/2000/svg" xmlns:xlink="http://www.w3.org/1999/xlink" x="0px" y="0px"
	 width="100%" viewBox="0 0 1024 1024" enable-background="new 0 0 1024 1024" xml:space="preserve">
<path fill="#000000" opacity="1.000000" stroke="none" 
	d="
M228.678619,504.529266 
	C229.649124,522.672241 214.471893,532.272644 199.405121,525.414551 
	C189.271210,520.801819 185.614471,506.095215 191.667755,495.987244 
	C192.257843,495.001862 192.951096,494.078247 193.939362,492.620056 
	C189.836929,492.361053 189.262589,489.819153 189.782379,486.719299 
	C190.409943,482.976776 193.462891,483.921204 195.747498,483.966858 
	C205.903824,484.169739 216.062592,484.425873 226.209030,484.904968 
	C239.223007,485.519409 246.474655,493.733398 245.794220,507.003143 
	C245.511276,512.521118 244.452454,517.901855 241.557220,522.761414 
	C240.119080,525.175293 238.589188,526.658630 235.565613,524.765259 
	C232.824448,523.048706 233.160629,521.352295 234.682358,519.020508 
	C238.049622,513.860657 238.460129,508.053925 237.626831,502.165131 
	C236.802811,496.342041 231.501999,492.923370 225.403641,494.290466 
	C226.435806,497.590576 228.452332,500.585327 228.678619,504.529266 
M219.629944,512.997498 
	C223.132034,503.822571 220.086243,495.493713 212.441040,493.339294 
	C205.873962,491.488617 200.208557,494.043274 197.577560,500.041565 
	C194.743896,506.501923 196.696136,514.221008 201.966217,517.394348 
	C207.484222,520.716980 214.578400,519.175049 219.629944,512.997498 
z"/>
<path fill="#000000" opacity="1.000000" stroke="none" 
	d="
M794.667603,616.420044 
	C785.895203,608.472168 783.739746,598.812561 786.168030,588.004272 
	C787.661072,581.359070 789.844116,574.871643 791.497498,568.258484 
	C792.306824,565.021179 793.920654,564.443420 796.960510,565.283447 
	C811.395447,569.272400 825.864014,573.140991 840.340942,576.975769 
	C843.481140,577.807556 844.833130,579.197693 843.743347,582.677979 
	C841.755981,589.024841 840.275513,595.530273 838.290466,601.877991 
	C831.994751,622.011047 812.478577,628.619446 794.667603,616.420044 
M803.873657,611.820923 
	C817.685913,616.701477 827.442688,611.738953 831.483276,597.748535 
	C832.312622,594.877014 832.804749,591.886658 833.866089,589.109253 
	C835.139587,585.776672 834.080505,584.268555 830.791809,583.427063 
	C821.135437,580.956177 811.504028,578.382812 801.900818,575.712708 
	C799.112488,574.937439 797.463318,575.433105 796.761475,578.444702 
	C795.895142,582.162170 794.710449,585.806152 793.866516,589.527954 
	C791.665710,599.233765 794.719727,606.343994 803.873657,611.820923 
z"/>
<path fill="#000000" opacity="1.000000" stroke="none" 
	d="
M359.472778,787.409241 
	C358.510345,790.819519 358.275726,794.038452 356.542603,796.742859 
	C350.914032,795.948669 349.893127,794.495422 351.216492,789.303772 
	C353.387329,780.787354 355.556854,772.270569 357.999146,762.685425 
	C349.307404,767.464478 342.417755,773.128235 335.000702,777.965820 
	C333.367096,779.031189 331.924744,780.697266 329.629456,779.512817 
	C326.851715,778.079407 325.279999,776.369751 326.307068,772.769592 
	C328.808350,764.002136 330.934723,755.127747 332.363800,745.523376 
	C325.075562,750.559692 317.637787,755.396790 310.558594,760.711609 
	C306.687836,763.617615 304.033630,763.041626 301.505829,759.511658 
	C301.395203,757.931641 302.449860,757.344360 303.410522,756.681519 
	C312.872467,750.152832 322.343353,743.637024 331.785614,737.079956 
	C334.186279,735.412842 336.311066,733.959473 339.413544,736.111938 
	C342.413940,738.193726 342.195496,740.537231 341.434814,743.505127 
	C339.387207,751.493469 337.533112,759.531372 335.336304,768.654053 
	C343.341705,763.292969 350.414154,758.646301 357.379120,753.843811 
	C359.807526,752.169434 361.799316,751.507812 364.555664,753.472717 
	C367.366364,755.476501 367.118988,757.609375 366.368469,760.405090 
	C363.995422,769.244629 361.819885,778.137146 359.472778,787.409241 
z"/>
<path fill="#000000" opacity="1.000000" stroke="none" 
	d="
M602.816772,232.629349 
	C602.692322,219.545654 609.367188,210.179474 620.387878,208.526917 
	C629.623718,207.142014 636.776855,211.190735 642.293274,219.476456 
	C644.386719,214.205093 646.411194,209.529007 648.089905,204.731918 
	C649.202087,201.553818 650.688721,200.590271 653.994873,201.970398 
	C657.133301,203.280533 657.258606,204.919571 656.096313,207.760941 
	C650.245422,222.063446 644.611206,236.454590 638.756470,250.755478 
	C637.927490,252.780304 638.240479,256.403564 634.522034,255.793442 
	C631.469666,255.292648 628.721619,253.935562 629.985840,249.817337 
	C615.295349,252.071884 606.572937,246.537949 602.816772,232.629349 
M623.631836,243.521561 
	C625.093079,243.265717 626.611511,243.183304 628.005676,242.723846 
	C633.848450,240.798248 638.385681,233.414719 637.549133,227.373413 
	C636.742188,221.545959 631.775024,216.879074 625.768311,216.304672 
	C619.191406,215.675735 613.940430,219.584686 611.902283,226.626740 
	C609.608582,234.551956 613.603149,240.679062 623.631836,243.521561 
z"/>
<path fill="#000000" opacity="1.000000" stroke="none" 
	d="
M650.340210,746.818237 
	C657.617310,761.596130 664.726990,776.059204 671.797485,790.541443 
	C672.721436,792.433899 674.179871,794.548950 671.270325,796.065918 
	C668.949768,797.275879 666.429626,799.478821 664.588745,794.378418 
	C660.511841,802.000916 654.549805,805.788452 646.989075,807.085632 
	C642.701660,807.821167 638.736938,806.625671 635.044189,804.520874 
	C626.538269,799.672668 622.132935,788.422974 625.036987,779.127808 
	C627.914612,769.917297 637.271179,764.368835 649.266052,765.116943 
	C648.134277,760.486755 645.592163,756.641785 643.903137,752.467285 
	C643.267639,750.896606 641.464294,749.025146 643.682556,747.628479 
	C645.537476,746.460449 647.496277,743.780823 650.340210,746.818237 
M647.982056,798.775879 
	C655.863342,796.549377 659.506287,791.664368 658.671875,784.441467 
	C657.954651,778.232056 652.550415,772.755554 646.693176,772.302490 
	C639.126343,771.717285 632.951416,776.972961 632.467163,784.410950 
	C631.942810,792.464417 638.386047,798.799866 647.982056,798.775879 
z"/>
<path fill="#000000" opacity="1.000000" stroke="none" 
	d="
M236.612854,601.227051 
	C234.656509,595.144592 232.816193,589.441406 230.947372,583.747681 
	C230.059570,581.042847 230.714233,579.408875 233.670639,578.495422 
	C236.719025,577.553528 237.542633,579.290955 238.265945,581.494446 
	C241.535751,591.455750 244.781067,601.425110 248.065231,611.381653 
	C248.977249,614.146606 248.162186,615.682556 245.277679,616.581116 
	C230.658142,621.135193 216.058487,625.756775 201.507645,630.524963 
	C198.247269,631.593262 196.932495,630.386841 196.057129,627.500977 
	C193.205185,618.098816 190.323944,608.704468 187.316406,599.351379 
	C186.400589,596.503235 186.558670,594.550903 189.821274,593.558472 
	C193.153610,592.544861 193.870758,594.747437 194.594131,597.082886 
	C196.662704,603.761475 198.783798,610.424683 200.761963,617.130005 
	C201.573059,619.879333 202.813385,621.029297 205.811111,619.879272 
	C209.049774,618.636780 212.548233,618.086670 216.360825,615.943726 
	C214.252441,609.289856 212.049194,602.565002 210.024033,595.786987 
	C209.508499,594.061584 208.072784,591.933594 210.836227,590.593018 
	C213.618027,589.243652 215.871613,588.997925 216.968140,592.752380 
	C218.460434,597.861877 220.137238,602.918640 221.797867,607.977295 
	C222.407547,609.834534 223.196579,611.632812 224.058868,613.858215 
	C228.351837,612.563660 232.301285,611.380859 236.245224,610.179871 
	C238.186981,609.588562 238.920013,608.398010 238.190048,606.378662 
	C237.625153,604.815918 237.202866,603.201599 236.612854,601.227051 
z"/>
<path fill="#000000" opacity="1.000000" stroke="none" 
	d="
M490.885925,793.734985 
	C497.134766,793.974792 502.491943,795.690918 507.434021,798.627686 
	C512.495483,801.635437 512.607727,803.033203 508.446198,807.859192 
	C506.280273,807.899780 504.969055,806.135803 503.321899,805.148621 
	C497.964966,801.938171 492.207031,800.737183 486.071411,801.390076 
	C482.361206,801.784851 479.203247,803.297302 478.452454,807.390320 
	C477.701660,811.483521 480.457031,813.531677 483.688446,814.867004 
	C488.605042,816.898682 493.717743,818.471802 498.574249,820.628845 
	C505.796600,823.836731 508.748810,828.400391 508.273468,834.755188 
	C507.777802,841.381714 503.433502,846.285767 496.160339,848.287170 
	C488.557312,850.379333 481.279480,848.987793 474.303375,845.798523 
	C468.915619,843.335510 468.729950,841.913574 472.717773,836.665405 
	C476.882111,837.934204 480.631073,840.572327 485.135956,841.269409 
	C488.714111,841.823059 492.100830,841.747559 495.373474,840.209717 
	C497.779205,839.079346 499.334900,837.229431 499.655579,834.488525 
	C500.002350,831.524719 498.325928,829.590576 495.961426,828.559265 
	C490.481750,826.169434 484.805176,824.232544 479.315033,821.864807 
	C474.015533,819.579224 469.890625,816.195984 469.694153,809.731812 
	C469.497986,803.278320 472.365814,798.578552 478.234314,795.784363 
	C482.115936,793.936157 486.221680,793.587341 490.885925,793.734985 
z"/>
<path fill="#000000" opacity="1.000000" stroke="none" 
	d="
M820.211792,512.534180 
	C825.002258,518.406250 829.597961,524.104370 834.512207,529.513062 
	C837.730896,533.055664 837.723145,536.810608 836.315247,542.348328 
	C832.636353,538.404541 829.536743,535.146423 826.509338,531.822571 
	C820.407104,525.122986 820.427979,525.114502 813.366882,530.410645 
	C808.081116,534.375122 802.781433,538.320984 797.418030,542.327454 
	C794.617615,536.968811 795.192993,533.909912 799.291626,530.711365 
	C804.247986,526.843384 809.241760,523.023254 814.419128,519.028320 
	C811.334412,514.256836 808.336426,510.416718 802.176697,510.751099 
	C799.412964,510.901093 796.468079,510.717499 796.634949,506.328888 
	C796.797363,502.059479 799.529175,501.896088 802.432678,502.121674 
	C817.046692,503.257172 831.692932,502.613953 846.317078,503.069916 
	C847.642578,503.111206 848.959351,503.411224 850.285339,503.466705 
	C853.294556,503.592621 854.242920,505.251312 854.129761,508.065430 
	C854.010376,511.035553 852.552124,512.205261 849.697266,512.107239 
	C841.391052,511.822083 833.084045,511.541779 824.775024,511.377289 
	C823.232605,511.346741 821.433960,510.607330 820.211792,512.534180 
z"/>
<path fill="#000000" opacity="1.000000" stroke="none" 
	d="
M517.875977,226.287018 
	C508.748901,218.433167 506.575470,208.508926 511.587982,198.772339 
	C515.928101,190.341721 525.557312,186.293045 535.433289,188.746246 
	C544.148438,190.911118 549.972412,198.494659 550.330200,207.791489 
	C550.478882,211.653412 549.035583,213.317368 545.104858,213.062576 
	C537.797729,212.588913 530.480652,212.257065 523.164185,211.950089 
	C521.549316,211.882339 519.873169,211.301468 518.284424,212.133987 
	C519.534790,221.143600 529.994080,225.852707 538.746765,221.022507 
	C541.859680,219.304626 543.950439,218.926498 545.536621,222.346649 
	C547.150330,225.826340 543.983154,226.732712 541.988403,227.724487 
	C533.887939,231.752060 525.906555,231.034164 517.875977,226.287018 
M528.793701,195.368576 
	C523.588379,196.007446 519.818909,198.336777 518.536438,203.751755 
	C522.270813,205.697220 536.324707,206.651031 541.397461,205.412201 
	C540.564636,198.846985 537.233643,196.006241 528.793701,195.368576 
z"/>
<path fill="#000000" opacity="1.000000" stroke="none" 
	d="
M758.404419,706.965576 
	C762.287354,717.281433 759.618469,726.320312 751.152527,732.462341 
	C743.774597,737.815002 734.597473,737.383118 727.050781,731.594116 
	C724.118835,729.345093 723.911987,727.649780 726.454529,724.773743 
	C732.382690,718.068237 738.912231,711.861572 744.161072,704.534241 
	C736.803589,699.437744 726.548645,704.849915 724.285461,714.757629 
	C723.857056,716.633179 724.182556,718.907349 721.340820,719.251160 
	C717.371704,719.731506 716.408508,717.702820 716.733154,714.203430 
	C717.483337,706.117188 725.066345,697.439758 733.660400,694.993591 
	C741.627991,692.725708 750.490051,695.839111 755.805908,702.829773 
	C756.709656,704.018311 757.428345,705.347534 758.404419,706.965576 
M738.295593,728.342163 
	C744.440247,728.637817 749.323853,726.022705 751.615295,720.873474 
	C753.392639,716.879517 753.336975,712.977722 749.734436,709.064148 
	C744.021667,714.388550 739.281067,720.150208 734.636108,725.700195 
	C735.383606,727.407410 736.577698,727.646362 738.295593,728.342163 
z"/>
<path fill="#000000" opacity="1.000000" stroke="none" 
	d="
M263.176453,659.020813 
	C261.292542,655.042236 258.455597,652.579224 254.838989,650.966003 
	C252.250061,649.811279 252.821198,648.007080 253.606186,645.982666 
	C254.503906,643.667603 255.993042,643.695190 258.016022,644.344604 
	C267.521027,647.396057 274.460144,660.542664 271.937012,670.865173 
	C269.401794,681.237183 257.670227,688.810547 247.414200,686.695984 
	C236.607361,684.467834 229.091965,673.785400 230.727417,662.932068 
	C231.627075,656.961548 234.948242,652.631592 239.796555,649.187500 
	C242.595291,647.199463 244.373505,647.312134 246.113678,650.496094 
	C249.385422,656.482361 252.920853,662.324707 256.364990,668.216187 
	C257.522034,670.195374 258.734894,672.141907 259.939209,674.131409 
	C264.884186,670.498474 265.605286,667.070251 263.176453,659.020813 
M244.953568,677.833252 
	C247.937592,679.159851 250.900909,679.351013 254.565903,677.721436 
	C250.468750,670.812744 246.589172,664.270935 242.611313,657.563477 
	C235.766464,664.046936 236.674957,671.630188 244.953568,677.833252 
z"/>
<path fill="#000000" opacity="1.000000" stroke="none" 
	d="
M610.580322,821.937866 
	C598.384705,825.828918 588.409058,821.795410 583.887695,811.598999 
	C582.228210,807.856384 582.427185,805.473816 587.019775,804.233704 
	C593.750671,802.416199 600.351135,800.114258 607.000488,797.997803 
	C608.701721,797.456299 610.377747,796.835754 612.063171,796.252258 
	C610.078369,791.118225 604.549683,788.335876 598.976318,789.568298 
	C595.029053,790.441162 591.257324,791.946228 588.904358,795.493774 
	C587.251648,797.985474 585.556274,797.688171 583.486877,796.243896 
	C581.000183,794.508301 581.665039,792.546631 583.169678,790.710022 
	C588.642090,784.030151 595.879883,781.150818 604.339294,781.821899 
	C612.089783,782.436646 617.702698,786.578674 620.898865,793.704407 
	C626.079285,805.254211 622.248047,815.925171 610.580322,821.937866 
M600.229004,806.846619 
	C597.637512,807.759033 594.712891,807.930725 592.611023,809.978760 
	C595.676392,815.666504 601.340210,817.538208 607.555725,815.111816 
	C613.052429,812.966064 615.455750,808.410278 613.783325,802.701843 
	C609.517090,803.993408 605.246094,805.286377 600.229004,806.846619 
z"/>
<path fill="#000000" opacity="1.000000" stroke="none" 
	d="
M273.691956,361.667419 
	C259.715729,376.220947 240.484787,365.869171 237.312836,352.093445 
	C235.556793,344.467041 239.176453,335.098236 246.240112,330.346069 
	C253.094086,325.734894 262.253265,325.980377 268.789337,330.687012 
	C271.133148,332.374817 270.513153,333.847229 269.304108,335.707886 
	C265.404816,341.708832 261.545349,347.735779 257.691772,353.766205 
	C256.633087,355.422913 255.648575,357.127014 254.461807,359.087219 
	C258.735077,362.045105 262.453552,360.410706 265.714111,358.299377 
	C270.115234,355.449432 272.799164,351.210144 272.689972,345.768890 
	C272.626129,342.586945 273.361938,340.583710 276.995300,340.652924 
	C281.017548,340.729584 280.223724,343.739044 280.284760,346.067627 
	C280.442719,352.088165 277.573303,356.915924 273.691956,361.667419 
M256.329376,334.950836 
	C250.132538,335.123566 246.599274,338.673096 244.881058,344.258209 
	C243.548767,348.588898 244.650833,352.312286 248.557556,355.659363 
	C253.091064,349.103699 257.667084,342.971375 261.226929,335.671448 
	C259.345978,335.346130 258.218445,335.151123 256.329376,334.950836 
z"/>
<path fill="#000000" opacity="1.000000" stroke="none" 
	d="
M774.445190,626.345398 
	C785.052002,619.469543 797.739563,621.349976 804.540894,630.536072 
	C811.140686,639.450012 809.506042,651.922485 800.660095,659.146484 
	C794.350464,664.299377 787.341125,664.476440 779.982605,661.682312 
	C776.910095,660.515564 776.502075,658.728394 777.926636,655.871765 
	C781.193237,649.321289 784.296265,642.687683 787.365906,636.041809 
	C788.102966,634.445984 789.413025,632.963562 789.014954,630.984558 
	C781.471802,629.159607 774.357361,634.473022 773.332825,642.728394 
	C773.108948,644.532288 773.142395,646.390259 773.262268,648.209778 
	C773.453369,651.110046 771.632202,652.013428 769.310242,652.326233 
	C766.460510,652.710083 766.036987,650.508911 765.794617,648.517700 
	C764.728149,639.757446 767.824402,632.536560 774.445190,626.345398 
M789.625854,655.670898 
	C796.097107,654.507324 800.072876,650.943359 800.777466,645.384399 
	C801.361206,640.778625 800.595459,636.628235 795.751160,633.644592 
	C792.576843,640.178711 789.611084,646.290039 786.638916,652.398193 
	C785.449890,654.841797 786.387512,655.800659 789.625854,655.670898 
z"/>
<path fill="#000000" opacity="1.000000" stroke="none" 
	d="
M258.265015,383.337463 
	C258.341888,396.874329 250.798462,406.799683 239.286652,408.782318 
	C231.816330,410.068939 222.056351,405.088104 217.833679,397.834167 
	C213.581894,390.530273 214.617798,381.159729 220.452194,374.147491 
	C225.479568,368.105194 234.461121,365.899078 242.307632,368.553467 
	C245.949341,369.785431 247.510376,371.157959 245.422287,375.339966 
	C241.446991,383.301788 238.075012,391.564819 234.400818,399.818848 
	C242.567673,401.640564 249.693405,395.891754 250.659485,387.366669 
	C250.789856,386.216217 250.870651,385.017120 250.695816,383.883514 
	C250.257950,381.044373 250.147156,378.507751 253.935120,378.051422 
	C257.718048,377.595764 257.506958,380.660065 258.265015,383.337463 
M223.462952,391.881714 
	C224.566116,393.878082 225.470337,396.099335 228.617111,396.280334 
	C231.917816,389.725861 235.133057,383.121704 237.551422,376.068909 
	C227.926025,373.750580 220.910690,381.537567 223.462952,391.881714 
z"/>
<path fill="#000000" opacity="1.000000" stroke="none" 
	d="
M286.747620,744.349121 
	C283.732513,741.900818 281.255035,739.447693 279.482574,736.364685 
	C275.801971,729.962585 276.569153,723.348755 281.989319,717.602722 
	C286.561279,712.755859 291.339050,708.098572 296.132996,703.468445 
	C297.572205,702.078491 298.792511,699.453430 301.437469,700.878662 
	C304.010620,702.265259 305.802002,704.370667 304.344849,707.736084 
	C310.432617,709.243408 314.925385,712.508240 318.176453,717.430176 
	C322.040100,723.279541 321.546234,729.620361 316.987976,733.764099 
	C312.361694,737.969666 306.661255,738.145935 301.077850,733.810608 
	C297.802765,731.267578 294.859589,728.273071 291.919922,725.329041 
	C288.990753,722.395508 287.409515,723.715210 286.084564,726.808472 
	C284.708984,730.020020 285.911316,732.691650 287.818787,735.143860 
	C290.453033,738.530334 293.891968,740.795532 298.046082,741.947754 
	C300.379272,742.594971 301.320587,743.861938 300.434937,746.397156 
	C299.622467,748.722778 298.288666,749.668823 295.913818,749.002869 
	C292.674225,748.094421 289.655853,746.728882 286.747620,744.349121 
M311.526245,727.057678 
	C313.918457,723.590149 312.464233,720.651917 309.970093,718.172424 
	C306.972656,715.192566 303.523407,712.722168 298.930756,714.085999 
	C294.276550,715.468079 293.679382,718.028137 297.060059,721.501526 
	C298.909882,723.402039 300.784821,725.300659 302.822479,726.990234 
	C305.327240,729.067139 308.094574,729.773010 311.526245,727.057678 
z"/>
<path fill="#000000" opacity="1.000000" stroke="none" 
	d="
M695.397095,258.647400 
	C699.985901,261.987488 704.260010,265.166077 708.613708,268.231476 
	C710.726501,269.719086 711.478149,271.133545 709.755981,273.552917 
	C707.986450,276.038788 706.382202,276.190948 703.997864,274.424377 
	C698.145325,270.088287 692.172058,265.915161 685.813416,261.365997 
	C682.263550,266.118195 678.918457,270.420105 675.779785,274.867706 
	C674.054688,277.312195 672.560486,278.251862 669.744934,276.143494 
	C667.013306,274.097961 666.639343,272.447510 668.719116,269.631866 
	C677.616211,257.586700 686.385437,245.445938 695.084351,233.256592 
	C696.989807,230.586670 698.585266,229.812119 701.508606,232.016403 
	C709.479309,238.026611 717.605835,243.833084 725.749084,249.609756 
	C728.116333,251.289108 728.620300,252.867859 726.916748,255.384033 
	C725.033752,258.165314 723.246155,257.444824 721.095032,255.878784 
	C714.400024,251.004837 707.658081,246.195450 700.422729,240.993225 
	C696.973572,245.774384 693.816284,250.150955 690.818115,254.306870 
	C691.879639,256.669464 693.800903,257.214874 695.397095,258.647400 
z"/>
<path fill="#000000" opacity="1.000000" stroke="none" 
	d="
M817.841492,424.308289 
	C816.461975,422.190765 815.404114,420.258240 813.955505,418.685791 
	C812.073730,416.643219 812.132385,415.098785 814.182861,413.229004 
	C816.416260,411.192535 818.069946,412.028564 819.653687,413.906616 
	C824.772156,419.976532 827.886353,426.855713 827.233093,434.932953 
	C826.795715,440.340668 823.820312,444.320984 818.768616,446.356842 
	C810.716797,449.601746 802.183838,451.234772 793.807800,453.380676 
	C792.456726,453.726837 791.182190,453.741150 790.481995,452.102020 
	C789.446716,449.678345 789.039246,447.346527 791.213013,445.029175 
	C787.249329,440.894257 784.895569,436.049133 784.284912,430.407593 
	C783.557434,423.686890 787.228394,418.074310 793.554993,416.275055 
	C798.729431,414.803467 804.159912,417.415344 806.817810,423.434631 
	C809.071411,428.538177 810.548645,433.984558 812.356628,439.241913 
	C819.607056,437.350006 820.887024,433.801453 817.841492,424.308289 
M801.377319,427.224792 
	C797.808533,423.656616 794.503052,423.452545 792.402039,426.841766 
	C790.176758,430.431427 791.530457,433.943420 793.312317,437.175049 
	C795.049561,440.325684 797.536560,442.827637 801.532776,442.600769 
	C804.502441,442.432159 806.211670,441.219025 804.919495,437.770416 
	C803.705444,434.530396 802.788574,431.179047 801.377319,427.224792 
z"/>
<path fill="#000000" opacity="1.000000" stroke="none" 
	d="
M316.905396,268.054504 
	C312.997803,262.628815 309.385132,257.427826 305.559662,252.388321 
	C303.576630,249.776001 303.347870,247.959137 306.365356,245.863571 
	C314.434875,240.259567 322.352722,234.435471 330.280884,228.630524 
	C332.587463,226.941635 334.384216,226.256439 336.517700,229.107422 
	C338.829102,232.196198 336.975891,233.440979 334.775879,234.998245 
	C329.203461,238.942734 323.750488,243.057388 318.143768,246.951416 
	C315.431244,248.835297 314.653290,250.605438 316.982971,253.423691 
	C319.510956,256.481934 321.706787,259.814789 324.335815,263.423676 
	C331.075806,259.666809 336.788757,254.858383 342.804016,250.526306 
	C345.051208,248.907883 346.507172,248.964630 348.171967,251.236115 
	C349.734863,253.368530 349.977661,254.851913 347.529297,256.568573 
	C341.540985,260.767242 335.702881,265.180145 329.600586,269.656281 
	C331.304688,274.443451 334.984772,277.737671 337.439880,281.791473 
	C338.965332,284.310272 342.888733,286.425598 338.135284,289.890778 
	C333.589050,293.204895 332.437225,289.571411 330.564178,286.982880 
	C326.072906,280.775879 321.595215,274.559021 316.905396,268.054504 
z"/>
<path fill="#000000" opacity="1.000000" stroke="none" 
	d="
M667.787415,760.850220 
	C668.285706,748.336121 677.340454,738.911072 689.128784,738.187500 
	C699.383972,737.557983 708.780884,745.841675 710.656738,757.164917 
	C712.042542,765.530579 706.668152,774.917603 698.153015,779.003906 
	C689.402161,783.203247 679.733215,781.384338 673.625916,774.257385 
	C670.432922,770.531250 668.218689,766.293091 667.787415,760.850220 
M702.632812,758.967224 
	C701.159485,752.494385 697.932800,747.521851 690.895264,746.383362 
	C683.772888,745.231140 676.936340,750.506592 676.256409,757.360779 
	C675.491028,765.077209 681.402893,772.700195 688.713928,773.424072 
	C695.876587,774.133240 702.246216,767.913208 702.632812,758.967224 
z"/>
<path fill="#000000" opacity="1.000000" stroke="none" 
	d="
M424.839050,817.810974 
	C419.457642,803.808044 425.165894,790.978943 437.955261,787.581482 
	C448.254120,784.845581 459.773315,790.158142 463.768463,799.486328 
	C467.775635,808.842590 464.239410,820.639587 455.849243,825.904907 
	C446.821289,831.570618 434.374207,829.607910 427.354828,821.379272 
	C426.495972,820.372498 425.795898,819.230225 424.839050,817.810974 
M455.531616,813.763000 
	C457.579620,808.453247 457.780426,803.203979 453.767792,798.776794 
	C450.451233,795.117615 446.045166,793.589966 441.079559,794.744690 
	C435.059662,796.144531 431.513824,800.841675 431.193695,807.516541 
	C430.872040,814.223083 433.779327,818.798218 439.553711,820.672241 
	C446.156036,822.815063 450.669861,821.017822 455.531616,813.763000 
z"/>
<path fill="#000000" opacity="1.000000" stroke="none" 
	d="
M424.828033,235.429398 
	C420.492920,245.230698 411.867706,250.772293 402.325348,250.154556 
	C393.893677,249.608719 386.693390,243.873398 383.973053,235.536240 
	C380.092651,223.643738 386.611237,211.924728 399.003815,208.514191 
	C411.062622,205.195496 422.201782,211.919891 425.197723,224.270447 
	C426.080292,227.908798 426.055664,231.486572 424.828033,235.429398 
M396.153290,239.384674 
	C402.886292,243.965973 409.237549,243.575653 414.088379,238.282471 
	C418.577118,233.384445 418.525360,225.720032 413.964661,219.955673 
	C410.027344,214.979309 403.134949,213.850769 397.276794,217.223312 
	C389.975098,221.426880 389.270874,230.640701 396.153290,239.384674 
z"/>
<path fill="#000000" opacity="1.000000" stroke="none" 
	d="
M199.856049,576.955872 
	C197.115250,577.272522 195.253403,577.171570 194.591324,574.174438 
	C193.927811,571.170898 194.825089,569.374878 198.263290,568.340210 
	C194.034164,564.320801 191.981964,559.748596 191.504410,554.437134 
	C190.711899,545.622681 194.491516,539.167053 203.042648,537.143372 
	C211.095856,535.237488 219.424057,534.486938 227.636932,533.265991 
	C230.491089,532.841675 230.881012,534.874939 231.161591,536.971680 
	C231.489868,539.424744 230.974731,541.217102 228.077026,541.598572 
	C222.144501,542.379700 216.213486,543.187988 210.304077,544.125244 
	C201.342545,545.546814 198.082001,549.432983 199.435593,556.857056 
	C200.694214,563.760132 206.645111,567.361877 214.579544,566.094299 
	C219.661636,565.282410 224.753998,564.530273 229.851273,563.819702 
	C232.756287,563.414856 235.053696,563.679443 235.383286,567.571472 
	C235.692398,571.221313 234.050980,572.000610 230.853775,572.412109 
	C220.640808,573.726379 210.470810,575.374573 199.856049,576.955872 
z"/>
<path fill="#000000" opacity="1.000000" stroke="none" 
	d="
M563.267090,228.032837 
	C562.681458,231.637390 561.594788,233.649994 557.596497,232.559616 
	C553.571411,231.461945 554.569397,228.845993 555.106018,226.288971 
	C557.187073,216.372009 559.338013,206.469711 561.457275,196.560760 
	C561.973999,194.144684 561.987854,191.291321 565.776001,191.893799 
	C568.654114,192.351593 571.090210,193.184967 569.825684,197.461334 
	C576.112915,194.128738 581.899536,194.227692 587.753540,196.574234 
	C594.939880,199.454895 599.077759,205.996231 597.827454,213.584808 
	C596.586365,221.117691 594.731750,228.547684 593.266602,236.046341 
	C592.655396,239.174500 590.804382,239.596405 588.137756,238.993652 
	C585.328552,238.358688 584.329285,236.841248 584.999084,233.946930 
	C586.420105,227.806351 587.703613,221.632645 588.957642,215.455093 
	C590.303040,208.827591 588.209656,205.057724 582.216431,203.068634 
	C575.940430,200.985703 570.242554,203.268158 567.800415,209.253571 
	C565.405029,215.124542 564.808899,221.496201 563.267090,228.032837 
z"/>
<path fill="#000000" opacity="1.000000" stroke="none" 
	d="
M218.718201,421.444397 
	C211.692627,421.490662 208.320389,424.107147 207.369980,429.887177 
	C206.290802,436.450348 208.732086,441.375183 214.770615,443.405151 
	C220.593765,445.362732 226.593033,446.836456 232.578064,448.256714 
	C235.902267,449.045563 236.946243,450.559052 236.015640,453.917816 
	C235.075150,457.312256 233.179825,457.258209 230.368286,456.479492 
	C220.271347,453.682739 210.127289,451.055298 199.991852,448.398926 
	C197.609589,447.774567 195.347412,447.123810 195.902939,443.901062 
	C196.372101,441.179260 197.372070,439.026245 201.316284,440.096008 
	C199.513702,434.713531 199.044144,429.740784 200.759216,424.692719 
	C203.842987,415.615967 210.762100,411.143646 220.062378,413.092438 
	C227.372467,414.624207 234.517242,416.937042 241.752106,418.839478 
	C244.487427,419.558777 244.988388,421.170380 244.282501,423.713287 
	C243.546539,426.364594 242.308502,427.846161 239.317184,427.014740 
	C232.593918,425.146027 225.856216,423.329254 218.718201,421.444397 
z"/>
<path fill="#000000" opacity="1.000000" stroke="none" 
	d="
M715.360413,300.738953 
	C719.029663,311.454834 728.093689,313.806152 735.953064,306.370697 
	C740.185364,302.366730 744.318115,298.250854 748.359314,294.054138 
	C750.583435,291.744446 752.182129,292.383636 754.152039,294.397552 
	C756.143005,296.433044 756.616394,298.090790 754.365540,300.261810 
	C746.456848,307.889862 738.643372,315.616577 730.764954,323.276215 
	C729.374451,324.628113 727.993896,326.546814 725.764404,324.455200 
	C723.768555,322.582886 721.505981,320.734894 724.980225,317.686066 
	C718.175476,316.790131 713.401733,313.444153 709.801514,308.389465 
	C704.984558,301.626740 705.461792,294.487427 711.483765,287.932556 
	C716.323669,282.664429 721.623230,277.820740 726.529175,272.610138 
	C728.866699,270.127441 730.481506,270.550598 732.673889,272.770081 
	C734.842896,274.965881 734.686890,276.481140 732.507751,278.522980 
	C728.256897,282.505859 724.167847,286.665436 720.098083,290.836090 
	C717.520447,293.477570 715.132996,296.288269 715.360413,300.738953 
z"/>
<path fill="#000000" opacity="1.000000" stroke="none" 
	d="
M467.663055,201.589172 
	C471.328522,210.321976 471.746460,219.440430 474.011536,228.124954 
	C474.726227,230.865097 472.715790,231.543503 470.641144,232.017624 
	C468.180145,232.580032 466.381439,232.077148 465.824127,229.237137 
	C464.829956,224.171082 463.762085,219.119431 462.712280,214.064407 
	C462.441650,212.761322 462.166779,211.456406 461.819672,210.172363 
	C460.016998,203.503723 456.318848,200.648987 450.512268,201.409470 
	C443.722900,202.298645 439.345337,206.963470 440.074768,213.655518 
	C440.792847,220.243225 442.276245,226.766510 443.747009,233.244690 
	C444.423920,236.226212 443.651520,237.703995 440.735260,238.225830 
	C437.950897,238.724030 436.112762,238.416214 435.445496,234.897247 
	C433.492920,224.600266 431.086365,214.390182 428.991425,204.118759 
	C428.561676,202.011673 427.336395,199.393387 430.650757,198.205841 
	C433.553619,197.165710 435.904633,197.515991 436.843445,200.984451 
	C449.399902,190.543823 460.549133,190.730469 467.663055,201.589172 
z"/>
<path fill="#000000" opacity="1.000000" stroke="none" 
	d="
M764.412720,362.703125 
	C765.012817,367.667511 766.526184,371.870667 769.291626,375.533051 
	C770.820557,377.557800 772.668457,379.630859 775.550537,378.274780 
	C778.504517,376.884857 777.896545,374.220978 777.185852,371.739014 
	C776.132019,368.058716 774.788147,364.444031 773.994873,360.710632 
	C772.749512,354.849365 774.529724,350.625671 778.820557,348.167847 
	C783.177002,345.672424 788.472900,346.287415 792.744446,349.897461 
	C798.398987,354.676483 800.751953,361.212463 802.144470,368.179321 
	C802.510498,370.010559 802.458313,372.027924 799.810120,372.251648 
	C797.435791,372.452240 795.084778,372.684296 794.646973,369.239716 
	C794.183472,365.593018 793.277954,362.009491 791.076843,358.959259 
	C789.264160,356.447388 787.064148,353.941071 783.644958,355.663300 
	C780.617249,357.188354 781.540283,360.069855 782.210999,362.745667 
	C783.260193,366.931366 785.094727,370.903442 785.446716,375.283417 
	C785.777100,379.395142 784.918579,382.855377 781.156189,385.190033 
	C777.253540,387.611694 773.340515,387.964630 769.437439,385.372864 
	C761.142212,379.864594 757.654297,371.693115 756.853577,362.123566 
	C756.656494,359.768555 757.806946,358.359314 760.284790,358.141022 
	C763.357849,357.870270 764.552429,359.385742 764.412720,362.703125 
z"/>
<path fill="#000000" opacity="1.000000" stroke="none" 
	d="
M803.650879,470.788391 
	C800.180115,478.357513 800.586853,483.326263 805.827209,487.821899 
	C808.970154,490.518158 808.025024,492.811920 806.173889,495.016205 
	C804.072449,497.518524 802.102783,495.111145 800.733154,493.819366 
	C794.326294,487.776672 792.659790,480.291748 794.843140,471.897430 
	C797.116882,463.155640 803.249634,458.433563 811.761658,456.991364 
	C819.913574,455.610138 826.950317,458.147125 831.914856,465.059052 
	C837.615417,472.995667 837.697266,484.660858 832.198364,490.651367 
	C830.915588,492.048889 829.563660,494.187775 827.333923,491.966583 
	C825.698242,490.337219 823.798401,488.597778 826.064880,486.040649 
	C830.963867,480.513519 828.460510,471.046295 823.707520,467.723785 
	C817.737549,463.550507 809.571777,464.638367 803.650879,470.788391 
z"/>
<path fill="#000000" opacity="1.000000" stroke="none" 
	d="
M389.998535,806.003784 
	C392.821747,805.358582 395.254578,806.732544 397.655273,807.740417 
	C400.650879,808.998230 402.138489,808.365417 403.208862,805.216614 
	C405.887451,797.336792 408.894653,789.569336 411.700409,781.731873 
	C412.708710,778.915466 413.820221,777.065063 417.476257,778.369690 
	C421.217621,779.704773 420.648621,781.757812 419.592346,784.583374 
	C416.736359,792.223328 414.121063,799.953003 411.319214,807.613770 
	C410.369354,810.210815 409.792603,812.342468 413.352112,813.433350 
	C415.713318,814.156921 415.380829,816.078125 414.677765,817.976868 
	C413.997162,819.814941 412.847137,820.954773 410.912048,820.047546 
	C407.211121,818.312439 406.399536,820.996643 405.100067,823.396484 
	C400.806335,831.326233 390.542694,832.927979 383.895111,826.791260 
	C382.326050,825.342712 381.104462,823.912842 382.886078,821.705017 
	C384.574219,819.613037 386.167267,819.123962 388.234009,821.196289 
	C389.313385,822.278625 390.772644,822.697571 392.326630,822.829346 
	C395.557007,823.103149 397.262726,821.405762 398.183411,818.544983 
	C399.231201,815.289246 396.575592,814.921326 394.668762,814.270569 
	C390.948303,813.000854 387.520111,811.754883 389.980530,806.353760 
	C390.009033,805.982422 389.998535,806.003784 389.998535,806.003784 
z"/>
<path fill="#000000" opacity="1.000000" stroke="none" 
	d="
M759.471191,692.474609 
	C755.862610,686.840149 752.531494,681.457092 749.013184,676.199219 
	C747.306213,673.648193 747.224426,671.490051 749.047791,668.915649 
	C750.740845,666.525269 752.590881,665.913757 755.430176,666.443542 
	C767.531860,668.701843 779.673401,670.745667 791.790039,672.925903 
	C792.703247,673.090271 793.534546,673.710327 794.373718,674.104370 
	C792.183899,680.594910 791.123596,681.252930 785.061890,680.051392 
	C777.729980,678.598206 770.399048,677.139893 763.068359,675.680664 
	C761.764709,675.421204 760.463379,675.117249 759.080139,675.796509 
	C758.406006,678.088867 760.277954,679.425537 761.252197,680.993286 
	C765.119263,687.216309 769.162659,693.329590 773.099365,699.509827 
	C776.033264,704.115662 775.821960,705.002502 770.747864,709.145935 
	C766.297058,704.205444 763.392090,698.199890 759.471191,692.474609 
z"/>
<path fill="#000000" opacity="1.000000" stroke="none" 
	d="
M390.014343,805.969604 
	C388.296173,808.629639 387.282532,812.214172 382.621155,809.680359 
	C380.372620,808.458191 379.623108,811.114075 378.935669,812.686401 
	C377.780243,815.329224 376.274567,816.136963 373.474182,814.832703 
	C370.582489,813.485901 369.682678,811.766113 371.426636,808.991333 
	C373.539368,805.629883 372.025574,803.876587 368.820496,802.676025 
	C367.435669,802.157288 366.074738,801.455566 364.871918,800.599548 
	C363.300568,799.481384 363.867523,798.005127 364.571136,796.592590 
	C365.286774,795.155945 366.153748,793.927490 368.009857,794.612366 
	C369.563599,795.185608 371.107117,795.830750 372.562897,796.615295 
	C375.109528,797.987671 376.763733,797.622070 378.046417,794.779785 
	C380.300385,789.785278 382.968445,784.978516 385.255310,779.997742 
	C387.535675,775.031067 386.188049,772.085205 380.857971,770.680115 
	C378.373230,770.025146 376.278870,769.602417 376.868591,766.356689 
	C377.494598,762.911255 380.179626,763.563049 382.372131,763.790466 
	C392.337067,764.823853 397.376343,773.454041 393.307983,782.553040 
	C390.531006,788.763733 387.530243,794.874390 384.639313,801.034424 
	C384.576782,801.167664 384.631470,801.356079 384.631470,801.767151 
	C386.209351,802.946533 387.895813,804.207031 389.790405,805.735718 
	C389.998535,806.003784 390.009033,805.982422 390.014343,805.969604 
z"/>
<path fill="#000000" opacity="1.000000" stroke="none" 
	d="
M784.639893,392.494507 
	C791.096558,389.803314 797.210938,387.266235 803.147217,384.803040 
	C803.404968,381.692841 800.000183,378.515381 804.754578,376.749023 
	C809.223877,375.088593 808.687378,379.748016 810.715271,381.039429 
	C812.010315,381.474457 813.052795,380.806244 814.061218,380.312897 
	C816.548889,379.095764 818.574402,378.438171 819.990601,381.921143 
	C821.216248,384.935364 821.242126,387.033325 817.695190,388.002655 
	C814.480164,388.881317 813.891846,390.786835 815.335571,393.633484 
	C815.859680,394.666779 816.106934,395.839569 816.622131,396.878510 
	C817.705933,399.063995 817.473206,400.530762 814.963074,401.598053 
	C812.248352,402.752380 810.958496,401.750000 810.024719,399.306091 
	C809.205872,397.163086 808.191467,395.094849 807.022888,392.448944 
	C799.951538,395.360291 793.111328,397.892303 786.537842,400.990295 
	C782.657166,402.819214 782.227417,406.255219 785.251465,410.184723 
	C787.087097,412.570007 787.222778,414.192139 784.815918,415.960358 
	C782.228577,417.861176 780.789124,415.870453 779.456970,414.227417 
	C774.053528,407.562897 773.196899,396.613525 784.639893,392.494507 
z"/>
<path fill="#000000" opacity="1.000000" stroke="none" 
	d="
M487.374451,226.608124 
	C482.486664,220.640610 484.186676,213.586411 483.013977,207.160126 
	C482.659546,205.217697 482.760925,203.182648 482.749268,201.189484 
	C482.734802,198.720062 482.051270,196.926132 479.129333,196.966064 
	C476.659210,196.999817 475.629791,195.733063 475.501770,193.279480 
	C475.378418,190.915955 476.405762,189.881180 478.609467,189.745377 
	C481.322723,189.578140 481.718079,187.805710 481.660278,185.572784 
	C481.622559,184.115204 481.220093,182.566971 482.253754,181.229080 
	C486.719666,179.715225 490.143707,179.885468 490.181702,185.928726 
	C490.194946,188.033615 491.533569,188.792587 493.510071,188.667328 
	C495.002106,188.572800 496.499481,188.551147 497.988861,188.428787 
	C500.278656,188.240677 501.925018,188.801712 502.125671,191.480286 
	C502.311890,193.966095 501.211426,194.997894 498.752686,195.367142 
	C491.110870,196.514725 491.054199,196.599152 491.349091,204.475784 
	C491.497955,208.451080 491.913574,212.418259 492.272247,216.383362 
	C492.753906,221.708099 495.505402,223.867920 500.665558,222.376282 
	C503.335632,221.604446 505.219147,221.426010 506.219910,224.338638 
	C507.350952,227.630493 504.711029,228.386932 502.578156,229.125259 
	C497.257721,230.967010 492.123352,230.914062 487.374451,226.608124 
z"/>
<path fill="#000000" opacity="1.000000" stroke="none" 
	d="
M674.935669,235.935242 
	C664.162415,245.606140 653.562195,254.940796 643.182617,264.514740 
	C639.487549,267.923035 636.854004,266.882874 634.074951,263.658569 
	C634.916077,260.664886 637.591064,259.589600 639.509216,257.867004 
	C655.335022,243.654846 671.296692,229.592789 687.029114,215.278549 
	C690.775574,211.869781 693.106750,213.579529 696.160950,216.590988 
	C689.679504,223.692795 682.237793,229.481262 674.935669,235.935242 
z"/>
<path fill="#000000" opacity="1.000000" stroke="none" 
	d="
M775.282227,329.251526 
	C780.093872,325.940430 784.676697,322.928101 789.126770,319.730988 
	C791.860413,317.766998 793.508423,318.629181 795.224426,321.149445 
	C796.947205,323.679749 796.425781,325.213654 793.996948,326.843994 
	C780.343384,336.008972 766.733093,345.238892 753.164551,354.529236 
	C750.706665,356.212128 749.183472,355.922852 747.463562,353.439178 
	C745.627136,350.787323 745.899658,349.161621 748.597717,347.372467 
	C757.458069,341.496887 766.206238,335.452087 775.282227,329.251526 
z"/>
<path fill="#000000" opacity="1.000000" stroke="none" 
	d="
M741.589600,338.694519 
	C738.219421,341.371582 736.910339,338.709442 735.373962,336.834656 
	C733.299438,334.303467 735.279236,332.952271 737.001953,331.593323 
	C749.527649,321.712372 762.083984,311.870056 774.578003,301.949341 
	C776.978516,300.043243 778.817383,299.255737 781.214539,302.197052 
	C783.683533,305.226501 782.309570,306.752136 779.911682,308.621338 
	C767.200989,318.529663 754.553284,328.518738 741.589600,338.694519 
z"/>
<path fill="#000000" opacity="1.000000" stroke="none" 
	d="
M708.140869,735.853943 
	C705.794434,733.240601 703.734497,730.845703 701.573242,728.546143 
	C699.732361,726.587463 699.591736,724.987915 701.898376,723.192993 
	C703.878235,721.652466 705.466553,720.251648 707.748047,722.820923 
	C718.890625,735.368835 730.083618,747.872375 741.329285,760.328064 
	C743.301025,762.511963 742.781860,763.943115 740.745972,765.661743 
	C738.519836,767.540771 736.865234,768.193726 734.554565,765.536682 
	C725.941528,755.632751 717.124146,745.906616 708.140869,735.853943 
z"/>
<path fill="#000000" opacity="1.000000" stroke="none" 
	d="
M293.846741,333.773315 
	C291.454254,337.394348 289.287659,337.143280 286.399811,334.615417 
	C278.768677,327.935455 270.873169,321.558441 263.179993,314.947845 
	C261.591431,313.582855 258.636444,312.502991 260.433777,309.454193 
	C261.943695,306.892975 263.897614,304.895905 267.385437,306.958160 
	C267.819275,302.996918 268.757416,299.678314 270.741211,296.714020 
	C271.899750,294.982849 273.214325,293.836853 275.168823,295.556702 
	C276.787628,296.981110 279.331635,297.831909 277.602997,301.074646 
	C273.067200,309.583466 273.933899,313.140808 281.417328,319.325958 
	C285.262695,322.504181 289.049377,325.753296 292.869934,328.961609 
	C294.341156,330.197021 295.753937,331.429169 293.846741,333.773315 
z"/>
<path fill="#000000" opacity="1.000000" stroke="none" 
	d="
M253.706451,705.340698 
	C251.570541,702.979248 246.442719,701.963135 250.732620,697.640015 
	C252.643814,695.713928 254.306107,695.421875 256.628754,697.571594 
	C261.987732,702.531494 266.727631,702.789185 272.777069,698.558289 
	C277.399719,695.325317 281.826752,691.792480 286.167877,688.184937 
	C288.664795,686.109924 290.262299,686.300415 292.257874,688.906616 
	C294.225098,691.475708 294.080841,692.972046 291.432190,694.949219 
	C283.050018,701.206238 274.892426,707.763489 266.544586,714.067810 
	C264.905823,715.305359 263.141052,718.045837 260.642822,715.410706 
	C258.741150,713.404846 256.277405,711.247864 259.832275,708.453430 
	C257.550507,707.308044 255.780624,706.419617 253.706451,705.340698 
z"/>
<path fill="#000000" opacity="1.000000" stroke="none" 
	d="
M561.962158,824.054321 
	C566.494263,820.381592 567.253113,815.862915 566.335754,810.779602 
	C565.363708,805.393677 564.652100,799.954224 563.489014,794.611633 
	C562.730591,791.127686 564.805969,790.857239 567.214294,790.229187 
	C570.021667,789.497070 571.302551,790.612183 571.759888,793.193726 
	C573.757446,804.467773 575.716980,815.748779 577.753418,827.015808 
	C578.192932,829.447754 576.837463,830.284912 574.899170,830.857300 
	C571.782959,831.777649 569.639832,831.058960 569.428772,826.867615 
	C566.406189,830.010864 563.652161,832.316711 560.079529,833.458008 
	C557.907227,834.151917 556.127197,834.352539 555.458008,831.567566 
	C554.895935,829.228699 554.270447,826.912415 557.505920,825.907104 
	C558.923096,825.466736 560.276367,824.820557 561.962158,824.054321 
z"/>
<path fill="#000000" opacity="1.000000" stroke="none" 
	d="
M365.791687,223.776276 
	C367.401245,222.577347 368.634735,221.402283 370.407623,221.294113 
	C374.944397,226.057831 374.938354,226.257126 370.148499,230.363297 
	C365.847412,234.050400 364.968872,239.003494 367.902069,244.837204 
	C370.443115,249.891006 373.177002,254.854309 375.997528,259.758789 
	C377.761047,262.825226 376.804108,264.549011 373.914398,266.114990 
	C370.806335,267.799316 369.791840,265.863129 368.621277,263.675873 
	C363.595123,254.284058 358.514771,244.921265 353.496979,235.525040 
	C352.525116,233.705124 350.802612,231.774323 353.713470,230.020447 
	C356.069916,228.600601 358.408142,226.548767 360.314636,231.156067 
	C362.216217,228.432785 363.274017,225.747375 365.791687,223.776276 
z"/>
<path fill="#000000" opacity="1.000000" stroke="none" 
	d="
M225.679596,474.417145 
	C215.726059,473.012512 206.204453,471.638214 196.678665,470.293579 
	C194.054245,469.923065 191.669922,469.521393 192.162094,465.857971 
	C192.660385,462.149139 194.688248,461.374939 198.086197,461.899689 
	C207.931137,463.420197 217.813034,464.700104 227.665176,466.176117 
	C230.664368,466.625427 234.191849,466.436768 233.299103,471.531311 
	C232.369492,476.836304 229.030396,474.811493 225.679596,474.417145 
z"/>
<path fill="#000000" opacity="1.000000" stroke="none" 
	d="
M545.886963,799.168091 
	C545.718567,802.640686 543.957886,804.431091 541.032776,804.992554 
	C539.075806,805.368103 537.425903,804.469299 536.252441,802.922180 
	C534.842285,801.063110 534.517029,799.010254 535.613708,796.842712 
	C536.611389,794.870728 538.258972,793.795837 540.413940,793.863770 
	C543.522217,793.961792 545.170044,795.885010 545.886963,799.168091 
z"/>
<path fill="#000000" opacity="1.000000" stroke="none" 
	d="
M304.744995,315.519348 
	C301.882355,313.341370 300.938599,310.888702 302.455414,307.937134 
	C303.509796,305.885376 305.343628,304.691559 307.706970,304.951843 
	C310.245758,305.231445 311.862366,306.815277 312.548035,309.269287 
	C313.762634,313.616608 310.502075,316.430817 304.744995,315.519348 
z"/>
<path fill="#000000" opacity="1.000000" stroke="none" 
	d="
M182.302368,458.786804 
	C186.073929,460.825928 186.559021,463.648621 184.628250,466.789734 
	C183.282059,468.979828 181.050079,469.750641 178.613785,468.573914 
	C175.878265,467.252716 174.877182,464.924744 175.696671,462.003784 
	C176.596542,458.796356 179.069427,458.300751 182.302368,458.786804 
z"/>
</svg>